<?xml version="1.0" encoding="utf-8"?>
<!-- Generator: Adobe Illustrator 20.0.0, SVG Export Plug-In . SVG Version: 6.00 Build 0)  -->
<svg version="1.1"
	 id="layer1" xmlns:cc="http://web.resource.org/cc/" xmlns:dc="http://purl.org/dc/elements/1.1/" xmlns:rdf="http://www.w3.org/1999/02/22-rdf-syntax-ns#" xmlns:svg="http://www.w3.org/2000/svg"
	 xmlns="http://www.w3.org/2000/svg" xmlns:xlink="http://www.w3.org/1999/xlink" x="0px" y="0px" viewBox="0 0 400 400"
	 style="enable-background:new 0 0 400 400;" xml:space="preserve">
<style type="text/css">
	.st0{fill:#FFFFFF;}
</style>
<g id="g1">
	<polygon id="polygon1" class="st0" points="210.1,73.4 118.6,152.6 32,152.6 32,254.4 117.3,254.4 210.1,334.7 	"/>
	<path class="st0" d="M256.7,273.5c-2.2,0-4.4-0.6-6.3-1.8c-5.6-3.5-7.3-10.9-3.8-16.5c9.5-15.2,14.5-32.7,14.5-50.5
		c0-18.1-5.2-35.8-14.9-51.2c-3.6-5.6-1.9-13,3.7-16.6c5.6-3.5,13-1.9,16.6,3.7c12.2,19.2,18.7,41.4,18.7,64
		c0,22.3-6.3,44.1-18.1,63.2C264.6,271.5,260.7,273.5,256.7,273.5z"/>
	<path class="st0" d="M294.3,311.1c-2.5,0-4.9-0.8-7.1-2.3c-5.3-3.9-6.5-11.4-2.6-16.8c18.7-25.5,28.5-55.7,28.5-87.3
		c0-32-10-62.4-29-88c-3.9-5.3-2.8-12.8,2.5-16.8c5.3-3.9,12.8-2.8,16.8,2.5c22.1,29.8,33.7,65.2,33.7,102.3
		c0,36.8-11.5,71.9-33.2,101.5C301.6,309.4,298,311.1,294.3,311.1z"/>
	<path class="st0" d="M329.1,345.9c-2.6,0-5.2-0.8-7.4-2.6c-5.2-4.1-6.1-11.7-2-16.9c27.7-35,42.3-77.2,42.3-121.8
		c0-45-14.8-87.3-42.8-122.5c-4.1-5.2-3.3-12.7,1.9-16.9c5.2-4.1,12.7-3.3,16.9,1.9c31.4,39.5,48,87,48,137.4
		c0,50.1-16.4,97.4-47.5,136.7C336.2,344.4,332.7,345.9,329.1,345.9z"/>
</g>
</svg>
