<?xml version="1.0" encoding="utf-8"?>
<svg version="1.1"
	 id="layer1" xmlns:cc="http://creativecommons.org/ns#" xmlns:dc="http://purl.org/dc/elements/1.1/" xmlns:inkscape="http://www.inkscape.org/namespaces/inkscape" xmlns:rdf="http://www.w3.org/1999/02/22-rdf-syntax-ns#" xmlns:sodipodi="http://sodipodi.sourceforge.net/DTD/sodipodi-0.dtd" xmlns:svg="http://www.w3.org/2000/svg"
	 xmlns="http://www.w3.org/2000/svg" xmlns:xlink="http://www.w3.org/1999/xlink" x="0px" y="0px" viewBox="0 0 400 400"
	 style="enable-background:new 0 0 400 400;" xml:space="preserve">
<path fill="#FFFFFF" d="M210.1,73.4l-91.5,79.2H32v101.8h85.3l92.8,80.3V73.4z M378.2,277.6c-2.3,2-5.2,3-8.1,3c-3.5,0-7-1.5-9.5-4.4
	l-45.8-53.7L269,276.2c-2.5,2.9-6,4.4-9.5,4.4c-2.9,0-5.8-1-8.1-3c-5.2-4.5-5.9-12.4-1.4-17.6l48.4-56.7L250,146.6
	c-4.5-5.3-3.9-13.1,1.4-17.6s13.1-3.9,17.6,1.4l45.8,53.7l45.8-53.7c4.5-5.3,12.4-5.9,17.6-1.4s5.9,12.4,1.4,17.6l-48.4,56.7
	l48.4,56.7C384.1,265.3,383.5,273.1,378.2,277.6z"/>
</svg>
